<?xml version="1.0" encoding="UTF-8" standalone="no"?>
<svg
   xmlns:dc="http://purl.org/dc/elements/1.1/"
   xmlns:cc="http://creativecommons.org/ns#"
   xmlns:rdf="http://www.w3.org/1999/02/22-rdf-syntax-ns#"
   xmlns:svg="http://www.w3.org/2000/svg"
   xmlns="http://www.w3.org/2000/svg"
   xmlns:sodipodi="http://sodipodi.sourceforge.net/DTD/sodipodi-0.dtd"
   xmlns:inkscape="http://www.inkscape.org/namespaces/inkscape"
   inkscape:export-ydpi="192"
   inkscape:export-xdpi="192"
   inkscape:export-filename="/home/canuto/Documents/Repos/barista-logo/barista_transparent.png"
   width="500"
   height="500"
   viewBox="0 0 132.29166 132.29167"
   version="1.1"
   id="svg8"
   inkscape:version="1.0 (5b275a35d9, 2020-05-03)"
   sodipodi:docname="barista.svg">
  <defs
     id="defs2">
    <inkscape:path-effect
       effect="skeletal"
       id="path-effect878"
       is_visible="false"
       lpeversion="1"
       pattern="M 4.7365196,1.2491348 -0.48882033,1.2386868 2.1474805,-0.48861541 Z"
       copytype="repeated_stretched"
       prop_scale="1"
       scale_y_rel="false"
       spacing="0"
       normal_offset="0"
       tang_offset="0"
       prop_units="false"
       vertical_pattern="false"
       hide_knot="false"
       fuse_tolerance="0" />
    <inkscape:path-effect
       fuse_tolerance="0"
       hide_knot="false"
       vertical_pattern="false"
       prop_units="false"
       tang_offset="0"
       normal_offset="0"
       spacing="0"
       scale_y_rel="false"
       prop_scale="1.2107208"
       copytype="repeated_stretched"
       pattern="M 3.0933665,-0.49349582 -2.2732379,-0.50422335 0.4343352,-2.2782235 Z"
       lpeversion="1"
       is_visible="true"
       id="path-effect869"
       effect="skeletal" />
    <inkscape:path-effect
       id="path-effect2"
       effect="skeletal" />
    <inkscape:path-effect
       fuse_tolerance="0"
       hide_knot="false"
       vertical_pattern="false"
       prop_units="false"
       tang_offset="0"
       normal_offset="0"
       spacing="0"
       scale_y_rel="false"
       prop_scale="1"
       copytype="single_stretched"
       pattern="m 78.868116,54.020613 h 1"
       lpeversion="1"
       is_visible="true"
       id="path-effect1055"
       effect="skeletal" />
    <inkscape:path-effect
       fuse_tolerance="0"
       hide_knot="false"
       vertical_pattern="false"
       prop_units="false"
       tang_offset="0"
       normal_offset="0"
       spacing="0"
       scale_y_rel="false"
       prop_scale="1"
       copytype="single_stretched"
       pattern="M 0,0 H 1"
       lpeversion="1"
       is_visible="true"
       id="path-effect996"
       effect="skeletal" />
    <inkscape:path-effect
       effect="skeletal"
       id="path-effect896"
       is_visible="true"
       lpeversion="1"
       pattern="M 4.1663069,3.619006 0,3.597248 2.101997,0 Z"
       copytype="repeated_stretched"
       prop_scale="1"
       scale_y_rel="false"
       spacing="0"
       normal_offset="0"
       tang_offset="0"
       prop_units="false"
       vertical_pattern="false"
       hide_knot="false"
       fuse_tolerance="0" />
    <inkscape:path-effect
       fuse_tolerance="0"
       hide_knot="false"
       vertical_pattern="false"
       prop_units="false"
       tang_offset="0"
       normal_offset="0"
       spacing="0"
       scale_y_rel="false"
       prop_scale="1"
       copytype="repeated_stretched"
       pattern="M 7.1725958,2.711189 3.0712348,2.6897823 5.140465,-0.84935402 Z"
       lpeversion="1"
       is_visible="true"
       id="path-effect873"
       effect="skeletal" />
  </defs>
  <sodipodi:namedview
     id="base"
     pagecolor="#636363"
     bordercolor="#666666"
     borderopacity="1.0"
     inkscape:pageopacity="0"
     inkscape:pageshadow="2"
     inkscape:zoom="1.514"
     inkscape:cx="127.30168"
     inkscape:cy="298.78946"
     inkscape:document-units="px"
     inkscape:current-layer="svg8"
     inkscape:document-rotation="0"
     showgrid="false"
     units="px"
     inkscape:pagecheckerboard="true"
     borderlayer="true"
     inkscape:window-width="1920"
     inkscape:window-height="1016"
     inkscape:window-x="0"
     inkscape:window-y="27"
     inkscape:window-maximized="1"
     inkscape:snap-global="false" />
  <metadata
     id="metadata5">
    <rdf:RDF>
      <cc:Work
         rdf:about="">
        <dc:format>image/svg+xml</dc:format>
        <dc:type
           rdf:resource="http://purl.org/dc/dcmitype/StillImage" />
        <dc:title />
      </cc:Work>
    </rdf:RDF>
  </metadata>
  <g
     style="display:none"
     inkscape:label="background"
     id="layer3"
     inkscape:groupmode="layer">
    <path
       id="rect910"
       style="display:inline;fill:#bfa584;fill-opacity:1;stroke-width:0.918124;stroke-linecap:round;stroke-linejoin:round;stroke-miterlimit:4;stroke-dasharray:none;paint-order:stroke fill markers"
       d="M -0.04528248,-0.00922269 H 132.68601 V 132.5507 H -0.04528248 Z"
       sodipodi:nodetypes="ccccc" />
  </g>
  <g
     transform="matrix(0.80397124,0,0,0.80397124,13.461754,12.123532)"
     style="font-style:normal;font-weight:normal;font-size:10.5833px;line-height:1.25;font-family:sans-serif;letter-spacing:0px;word-spacing:0px;fill:#684123;fill-opacity:1;stroke:none;stroke-width:0.264583"
     id="text935"
     aria-label="Torréfaction Artisanale">
    <path
       id="path945"
       style="font-style:normal;font-variant:normal;font-weight:normal;font-stretch:normal;font-size:10.5833px;font-family:'Nimbus Mono PS';-inkscape-font-specification:'Nimbus Mono PS, Normal';font-variant-ligatures:normal;font-variant-caps:normal;font-variant-numeric:normal;font-variant-east-asian:normal;fill:#684123;fill-opacity:1;stroke-width:0.264583"
       d="m 19.505278,64.836416 -4.866908,-0.341869 0.114945,-1.636379 0.696781,0.04894 c 0.200588,0.01409 0.356547,-0.09166 0.368413,-0.260574 0.01261,-0.179474 -0.08703,-0.271348 -0.329851,-0.288405 l -1.235203,-0.08676 -0.346318,4.930253 1.235202,0.08676 c 0.23226,0.01631 0.355065,-0.07054 0.367672,-0.250017 0.01261,-0.179474 -0.09685,-0.282647 -0.32911,-0.298962 l -0.69678,-0.04894 0.115686,-1.646937 4.866909,0.341869 -0.07342,1.045171 c -0.01631,0.232261 0.07054,0.355065 0.23946,0.36693 0.179473,0.01261 0.283388,-0.107406 0.298961,-0.329109 l 0.185396,-2.639321 c 0.01557,-0.221703 -0.07054,-0.355065 -0.250018,-0.367672 -0.168916,-0.01187 -0.272089,0.09759 -0.288404,0.329851 z" />
    <path
       id="path947"
       style="font-style:normal;font-variant:normal;font-weight:normal;font-stretch:normal;font-size:10.5833px;font-family:'Nimbus Mono PS';-inkscape-font-specification:'Nimbus Mono PS, Normal';font-variant-ligatures:normal;font-variant-caps:normal;font-variant-numeric:normal;font-variant-east-asian:normal;fill:#684123;fill-opacity:1;stroke-width:0.264583"
       d="m 16.430123,57.888116 c -0.294139,1.387324 0.494378,2.668816 1.809229,2.94759 1.283792,0.272189 2.547395,-0.585032 2.832754,-1.930943 0.28536,-1.34591 -0.513511,-2.629598 -1.818009,-2.906177 -1.273438,-0.269994 -2.545199,0.574679 -2.823974,1.88953 z m 0.514841,0.174068 c 0.228288,-1.076728 1.18038,-1.740351 2.205343,-1.523039 0.993903,0.210727 1.61549,1.208001 1.393788,2.25367 -0.221702,1.045669 -1.196696,1.715254 -2.200953,1.502332 -0.98355,-0.208532 -1.61549,-1.208 -1.398178,-2.232963 z" />
    <path
       id="path949"
       style="font-style:normal;font-variant:normal;font-weight:normal;font-stretch:normal;font-size:10.5833px;font-family:'Nimbus Mono PS';-inkscape-font-specification:'Nimbus Mono PS, Normal';font-variant-ligatures:normal;font-variant-caps:normal;font-variant-numeric:normal;font-variant-east-asian:normal;fill:#684123;fill-opacity:1;stroke-width:0.264583"
       d="m 18.319555,51.716319 -0.437669,1.203466 c -0.07596,0.208866 -0.02985,0.360771 0.129286,0.418645 0.159136,0.05787 0.302001,-0.02531 0.37796,-0.234173 l 0.24958,-0.686274 3.152881,1.14662 -0.329156,0.905086 c -0.07596,0.208866 -0.01991,0.364388 0.129285,0.418645 0.169082,0.06149 0.302001,-0.02531 0.377961,-0.234173 l 1.14662,-3.152881 c 0.07234,-0.19892 0.02623,-0.350826 -0.142849,-0.412316 -0.14919,-0.05426 -0.292055,0.02892 -0.364397,0.227844 l -0.629375,1.730603 -2.068767,-0.752356 c -0.574115,-1.425026 -0.673563,-1.83282 -0.518028,-2.260498 0.07234,-0.19892 0.226964,-0.345394 0.552478,-0.497288 0.09856,-0.05425 0.129302,-0.07685 0.161856,-0.166366 0.05426,-0.14919 -0.01536,-0.298384 -0.174497,-0.356257 -0.09946,-0.03617 -0.210677,-0.009 -0.428592,0.125668 -0.326419,0.185349 -0.495509,0.371607 -0.607639,0.679933 -0.188089,0.517192 -0.0995,1.078698 0.357986,2.236079 z" />
    <path
       id="path951"
       style="font-style:normal;font-variant:normal;font-weight:normal;font-stretch:normal;font-size:10.5833px;font-family:'Nimbus Mono PS';-inkscape-font-specification:'Nimbus Mono PS, Normal';font-variant-ligatures:normal;font-variant-caps:normal;font-variant-numeric:normal;font-variant-east-asian:normal;fill:#684123;fill-opacity:1;stroke-width:0.264583"
       d="m 21.088579,45.331205 -0.60091,1.130837 c -0.10429,0.196261 -0.07977,0.353106 0.06976,0.432565 0.149532,0.07946 0.302584,0.01697 0.406874,-0.179289 l 0.342667,-0.644857 2.962605,1.574283 -0.451924,0.850463 c -0.10429,0.196261 -0.07043,0.358072 0.06976,0.432565 0.158878,0.08443 0.302584,0.01697 0.406874,-0.179289 l 1.574283,-2.962605 c 0.09932,-0.186915 0.07481,-0.343759 -0.08407,-0.428185 -0.140187,-0.07449 -0.293239,-0.012 -0.392563,0.17491 L 24.527817,47.158764 22.5839,46.125796 c -0.37019,-1.491062 -0.411912,-1.908728 -0.198366,-2.310596 0.09932,-0.186915 0.272827,-0.310443 0.616314,-0.415552 0.10515,-0.04 0.13874,-0.05811 0.183436,-0.14222 0.07449,-0.140186 0.02632,-0.297618 -0.123215,-0.377077 -0.09346,-0.04966 -0.207366,-0.03828 -0.44191,0.06479 -0.34904,0.138113 -0.542408,0.299024 -0.69636,0.588742 -0.258242,0.485979 -0.248663,1.054351 0.04328,2.264141 z" />
    <path
       id="path953"
       style="font-style:normal;font-variant:normal;font-weight:normal;font-stretch:normal;font-size:10.5833px;font-family:'Nimbus Mono PS';-inkscape-font-specification:'Nimbus Mono PS, Normal';font-variant-ligatures:normal;font-variant-caps:normal;font-variant-numeric:normal;font-variant-east-asian:normal;fill:#684123;fill-opacity:1;stroke-width:0.264583"
       d="m 28.318456,38.464743 -0.06855,-0.0497 -0.05998,-0.04348 c -1.096758,-0.79513 -2.531953,-0.528424 -3.364355,0.619745 -0.819978,1.131031 -0.648166,2.588934 0.388613,3.340581 1.131032,0.819978 2.682114,0.519639 3.545575,-0.671371 0.60256,-0.831137 0.930499,-2.148953 0.604899,-2.385007 -0.119958,-0.08697 -0.282543,-0.06105 -0.36951,0.05891 -0.03727,0.05141 -0.04498,0.09811 -0.04327,0.203928 0.0086,0.529095 -0.250181,1.282684 -0.622898,1.79679 -0.646043,0.891116 -1.678955,1.161887 -2.588491,0.685497 z m -3.014951,3.239085 c -0.597008,-0.655044 -0.612441,-1.607416 -0.04094,-2.39571 0.565288,-0.779727 1.490024,-1.063564 2.283458,-0.69749 z m -1.097874,-4.652173 c -0.01971,-0.171153 -0.03299,-0.206925 -0.110106,-0.262833 -0.128526,-0.09318 -0.29111,-0.06726 -0.38429,0.06127 -0.04348,0.05998 -0.05741,0.115245 -0.04241,0.256837 l 0.122974,1.579359 c 0.01735,0.156373 0.03299,0.206926 0.110106,0.262833 0.128527,0.09318 0.291111,0.06726 0.38429,-0.06127 0.04348,-0.05998 0.05119,-0.106676 0.04241,-0.256837 z" />
    <path
       id="path955"
       style="font-style:normal;font-variant:normal;font-weight:normal;font-stretch:normal;font-size:10.5833px;font-family:'Nimbus Mono PS';-inkscape-font-specification:'Nimbus Mono PS, Normal';font-variant-ligatures:normal;font-variant-caps:normal;font-variant-numeric:normal;font-variant-east-asian:normal;fill:#684123;fill-opacity:1;stroke-width:0.264583"
       d="m 29.676476,34.225427 1.349323,-1.404069 c 0.153999,-0.160247 0.165988,-0.310186 0.03626,-0.434852 -0.129724,-0.124665 -0.271436,-0.09939 -0.425435,0.06085 l -1.349323,1.40407 -0.419695,-0.403331 c -0.351017,-0.33733 -0.279872,-0.90012 0.182124,-1.380861 0.271332,-0.28234 0.506889,-0.481634 0.993266,-0.865555 0.05896,-0.04608 0.0883,-0.07661 0.102963,-0.09187 0.117332,-0.122093 0.12169,-0.279365 0.0072,-0.389364 -0.0992,-0.09533 -0.226544,-0.100285 -0.352102,-0.01545 -0.288081,0.192853 -0.839862,0.675379 -1.133193,0.980612 -0.674661,0.702034 -0.753927,1.609296 -0.181616,2.159292 l 0.419694,0.40333 -0.601328,0.625726 c -0.161333,0.167878 -0.173321,0.317817 -0.05123,0.435149 0.129723,0.124666 0.279067,0.106726 0.440399,-0.06115 l 0.601329,-0.625726 2.418967,2.324649 -0.674662,0.702034 c -0.161332,0.167878 -0.173321,0.317817 -0.05123,0.435149 0.129724,0.124666 0.286401,0.0991 0.4404,-0.06115 l 2.317315,-2.411337 c 0.153999,-0.160247 0.173321,-0.317816 0.0436,-0.442482 -0.122093,-0.117332 -0.271436,-0.09939 -0.432768,0.06848 l -1.261324,1.3125 z" />
    <path
       id="path957"
       style="font-style:normal;font-variant:normal;font-weight:normal;font-stretch:normal;font-size:10.5833px;font-family:'Nimbus Mono PS';-inkscape-font-specification:'Nimbus Mono PS, Normal';font-variant-ligatures:normal;font-variant-caps:normal;font-variant-numeric:normal;font-variant-east-asian:normal;fill:#684123;fill-opacity:1;stroke-width:0.264583"
       d="m 38.299801,31.74432 0.839722,-0.661394 c 0.174595,-0.137518 0.207114,-0.284378 0.09579,-0.425717 -0.104775,-0.133025 -0.255166,-0.135819 -0.429762,0.0017 l -0.40739,0.320874 -1.676406,-2.128404 c -0.478037,-0.606927 -1.415405,-0.582633 -2.213557,0.04602 -0.315935,0.248841 -0.77122,0.782574 -1.104073,1.300707 -0.08366,0.133249 -0.08947,0.245601 -0.01088,0.34537 0.09168,0.116397 0.255166,0.135819 0.363249,0.05069 0.04157,-0.03274 0.05996,-0.0607 0.141853,-0.179088 0.35603,-0.522916 0.652834,-0.864464 0.918885,-1.074015 0.581985,-0.458392 1.177514,-0.523296 1.472195,-0.149163 l 0.406005,0.515473 c -0.597072,0.268197 -0.824569,0.406966 -1.198703,0.701647 -1.08083,0.8513 -1.411247,1.919861 -0.828434,2.659814 0.504232,0.640184 1.391715,0.65518 2.189867,0.02653 0.573671,-0.451843 0.886879,-0.994919 1.055284,-1.841569 z m -0.772719,-0.981061 c -0.147507,0.924495 -0.429224,1.456239 -1.002896,1.908082 -0.557043,0.438747 -1.109236,0.456046 -1.423563,0.05697 -0.37981,-0.482217 -0.05976,-1.273172 0.771644,-1.928018 0.36582,-0.288133 0.797638,-0.560889 1.12439,-0.710475 z" />
    <path
       id="path959"
       style="font-style:normal;font-variant:normal;font-weight:normal;font-stretch:normal;font-size:10.5833px;font-family:'Nimbus Mono PS';-inkscape-font-specification:'Nimbus Mono PS, Normal';font-variant-ligatures:normal;font-variant-caps:normal;font-variant-numeric:normal;font-variant-east-asian:normal;fill:#684123;fill-opacity:1;stroke-width:0.264583"
       d="m 42.055223,24.51711 c -0.531008,-0.06984 -1.10611,0.05765 -1.645321,0.372519 -1.252067,0.731146 -1.640706,2.122377 -0.930907,3.337887 0.688451,1.178953 2.0568,1.50742 3.290588,0.786948 0.612325,-0.357568 1.11411,-0.883444 1.40636,-1.495306 0.167439,-0.342888 0.208463,-0.587446 0.133747,-0.715394 -0.06938,-0.11881 -0.228614,-0.160635 -0.347424,-0.09126 -0.07311,0.04269 -0.108135,0.08766 -0.142356,0.217941 -0.211464,0.687243 -0.646207,1.222991 -1.304227,1.607243 -0.968752,0.565705 -2.027768,0.326225 -2.566788,-0.596831 -0.560368,-0.959613 -0.272124,-1.998083 0.705768,-2.569124 0.749412,-0.43762 1.564536,-0.4479 1.886212,-0.02296 0.125015,0.172109 0.240823,0.202528 0.377911,0.122476 0.155366,-0.09073 0.178913,-0.239289 0.07218,-0.422072 L 42.51065,24.226651 c -0.112073,-0.191922 -0.253031,-0.244422 -0.408397,-0.153695 -0.155366,0.09073 -0.169774,0.233951 -0.0577,0.425874 z" />
    <path
       id="path961"
       style="font-style:normal;font-variant:normal;font-weight:normal;font-stretch:normal;font-size:10.5833px;font-family:'Nimbus Mono PS';-inkscape-font-specification:'Nimbus Mono PS, Normal';font-variant-ligatures:normal;font-variant-caps:normal;font-variant-numeric:normal;font-variant-east-asian:normal;fill:#684123;fill-opacity:1;stroke-width:0.264583"
       d="m 45.537722,22.443738 -0.449685,-1.096717 c -0.08432,-0.205635 -0.212595,-0.267421 -0.379061,-0.199165 -0.166466,0.06826 -0.21043,0.212105 -0.130129,0.407947 l 0.449685,1.096718 -0.675656,0.277038 c -0.215427,0.08833 -0.29102,0.210833 -0.222764,0.377299 0.06826,0.166466 0.212104,0.21043 0.427531,0.122099 l 0.675656,-0.277038 1.035882,2.526367 c 0.305144,0.744201 1.122799,0.98086 2.082427,0.587385 0.46023,-0.188707 0.964423,-0.521263 1.362174,-0.890243 0.306098,-0.285647 0.410577,-0.477185 0.350351,-0.624067 -0.05621,-0.137089 -0.20809,-0.200637 -0.345179,-0.144427 -0.04896,0.02008 -0.08411,0.04593 -0.148153,0.140816 -0.293562,0.372013 -0.904977,0.805726 -1.443544,1.026553 -0.64628,0.264993 -1.168209,0.135846 -1.356916,-0.324383 l -1.027851,-2.506784 2.095514,-0.859219 c 0.215426,-0.08833 0.287004,-0.220626 0.218749,-0.387092 -0.06826,-0.166466 -0.20809,-0.200637 -0.423517,-0.112306 z" />
    <path
       id="path963"
       style="font-style:normal;font-variant:normal;font-weight:normal;font-stretch:normal;font-size:10.5833px;font-family:'Nimbus Mono PS';-inkscape-font-specification:'Nimbus Mono PS, Normal';font-variant-ligatures:normal;font-variant-caps:normal;font-variant-numeric:normal;font-variant-east-asian:normal;fill:#684123;fill-opacity:1;stroke-width:0.264583"
       d="m 53.471085,19.758365 -1.692296,0.4307 c -0.22564,0.05743 -0.307321,0.16558 -0.262946,0.339938 0.04438,0.174358 0.180688,0.237952 0.396071,0.183135 l 1.158967,-0.294964 0.827465,3.251261 -1.589733,0.404596 c -0.215383,0.05482 -0.30471,0.175837 -0.262946,0.339939 0.04437,0.174357 0.180688,0.237951 0.396071,0.183135 l 3.712796,-0.944929 c 0.215383,-0.05482 0.314967,-0.178447 0.270592,-0.352805 -0.04176,-0.164101 -0.178078,-0.227695 -0.403717,-0.170268 l -1.589733,0.404596 z m -0.550404,-2.076817 -0.717944,0.182721 0.294964,1.158967 0.717944,-0.182721 z" />
    <path
       id="path965"
       style="font-style:normal;font-variant:normal;font-weight:normal;font-stretch:normal;font-size:10.5833px;font-family:'Nimbus Mono PS';-inkscape-font-specification:'Nimbus Mono PS, Normal';font-variant-ligatures:normal;font-variant-caps:normal;font-variant-numeric:normal;font-variant-east-asian:normal;fill:#684123;fill-opacity:1;stroke-width:0.264583"
       d="m 60.076615,18.433042 c -1.409607,0.155536 -2.379361,1.305996 -2.23195,2.641967 0.143929,1.304413 1.354024,2.235644 2.721553,2.084751 1.36753,-0.150893 2.336123,-1.311873 2.189873,-2.637325 -0.142769,-1.293893 -1.343505,-2.236804 -2.679476,-2.089393 z m -0.0039,0.543456 c 1.094023,-0.120714 2.022634,0.575388 2.137544,1.616814 0.111429,1.009868 -0.640752,1.912723 -1.703217,2.029955 -1.062465,0.117233 -2.003916,-0.598747 -2.116506,-1.619135 -0.110268,-0.999348 0.640753,-1.912723 1.682179,-2.027634 z" />
    <path
       id="path967"
       style="font-style:normal;font-variant:normal;font-weight:normal;font-stretch:normal;font-size:10.5833px;font-family:'Nimbus Mono PS';-inkscape-font-specification:'Nimbus Mono PS, Normal';font-variant-ligatures:normal;font-variant-caps:normal;font-variant-numeric:normal;font-variant-east-asian:normal;fill:#684123;fill-opacity:1;stroke-width:0.264583"
       d="m 65.651163,18.263389 -0.856924,-0.02356 c -0.232744,-0.0064 -0.340864,0.07533 -0.345809,0.255175 -0.0049,0.179849 0.108811,0.278262 0.330976,0.28437 l 0.3068,0.0084 -0.0922,3.353639 -0.423173,-0.01163 c -0.232744,-0.0064 -0.351734,0.08562 -0.356388,0.254885 -0.0049,0.179848 0.11939,0.278552 0.341555,0.284659 l 1.396468,0.03839 c 0.222165,0.0061 0.341155,-0.08591 0.3461,-0.265755 0.0047,-0.169269 -0.109101,-0.267682 -0.331267,-0.27379 l -0.423172,-0.01163 0.0701,-2.549612 c 0.667151,-0.775706 0.935996,-0.927124 1.581334,-0.909382 0.380855,0.01047 0.580116,0.07947 0.807626,0.276299 0.248086,0.218566 0.368348,0.46538 0.360495,0.751021 l -0.06893,2.507295 -0.296221,-0.0081 c -0.232744,-0.0064 -0.351734,0.08562 -0.356388,0.254885 -0.0049,0.179848 0.11939,0.278552 0.341555,0.28466 l 1.153144,0.0317 c 0.211586,0.0058 0.341155,-0.08591 0.3461,-0.265754 0.0047,-0.169269 -0.109101,-0.267682 -0.331267,-0.27379 l -0.306799,-0.0084 0.07097,-2.58135 c 0.02269,-0.825185 -0.700414,-1.480303 -1.67371,-1.507061 -0.645337,-0.01774 -1.031428,0.162215 -1.608418,0.739241 z" />
    <path
       id="path969"
       style="font-style:normal;font-variant:normal;font-weight:normal;font-stretch:normal;font-size:10.5833px;font-family:'Nimbus Mono PS';-inkscape-font-specification:'Nimbus Mono PS, Normal';font-variant-ligatures:normal;font-variant-caps:normal;font-variant-numeric:normal;font-variant-east-asian:normal;fill:#684123;fill-opacity:1;stroke-width:0.264583"
       d="m 81.197282,23.362041 0.09166,1.504728 -0.686379,-0.216335 c -0.21197,-0.06681 -0.351635,-0.01096 -0.402537,0.15054 -0.05408,0.171594 0.02832,0.297434 0.240285,0.364244 l 1.574634,0.496299 c 0.21197,0.06681 0.361728,0.01414 0.415812,-0.157453 0.0509,-0.161501 -0.0315,-0.28734 -0.253561,-0.357331 L 81.844101,25.041746 81.4845,19.246982 79.395083,18.588431 c -0.222064,-0.06999 -0.358547,-0.02424 -0.412631,0.147359 -0.05408,0.171594 0.03841,0.300615 0.250379,0.367425 l 1.120412,0.353136 -3.222949,4.099679 -0.282627,-0.08908 c -0.21197,-0.06681 -0.351634,-0.01096 -0.402537,0.15054 -0.05408,0.171595 0.03841,0.300616 0.240286,0.364244 l 1.524164,0.480392 c 0.21197,0.06681 0.361728,0.01414 0.415812,-0.157452 0.0509,-0.161501 -0.0315,-0.287341 -0.25356,-0.357332 l -0.71666,-0.225879 0.927817,-1.183406 z m -0.03962,-0.578412 -2.210544,-0.696727 1.931005,-2.465118 0.08075,0.02545 z" />
    <path
       id="path971"
       style="font-style:normal;font-variant:normal;font-weight:normal;font-stretch:normal;font-size:10.5833px;font-family:'Nimbus Mono PS';-inkscape-font-specification:'Nimbus Mono PS, Normal';font-variant-ligatures:normal;font-variant-caps:normal;font-variant-numeric:normal;font-variant-east-asian:normal;fill:#684123;fill-opacity:1;stroke-width:0.264583"
       d="m 86.729006,22.938669 -1.155792,-0.551387 c -0.200592,-0.0957 -0.356229,-0.06441 -0.429139,0.08842 -0.07291,0.152832 -0.0039,0.303035 0.196736,0.398731 l 0.659088,0.314427 -1.444544,3.027984 -0.869232,-0.41468 c -0.200592,-0.09569 -0.360785,-0.05486 -0.429139,0.08842 -0.07747,0.162384 -0.0039,0.303035 0.196736,0.39873 l 3.027984,1.444544 c 0.19104,0.09114 0.346676,0.05985 0.424144,-0.10253 0.06835,-0.14328 -7.01e-4,-0.293483 -0.191741,-0.384622 l -1.662048,-0.792904 0.947839,-1.986816 c 1.473638,-0.434397 1.889106,-0.494162 2.299842,-0.298215 0.19104,0.09114 0.321964,0.259131 0.441846,0.597746 0.04452,0.103319 0.06406,0.136094 0.150027,0.177106 0.14328,0.06835 0.298478,0.01341 0.371389,-0.139424 0.04557,-0.09552 0.02927,-0.20883 -0.08387,-0.438691 -0.153094,-0.342733 -0.322226,-0.528953 -0.618338,-0.670218 -0.496704,-0.23696 -1.064128,-0.202783 -2.260144,0.141264 z" />
    <path
       id="path973"
       style="font-style:normal;font-variant:normal;font-weight:normal;font-stretch:normal;font-size:10.5833px;font-family:'Nimbus Mono PS';-inkscape-font-specification:'Nimbus Mono PS, Normal';font-variant-ligatures:normal;font-variant-caps:normal;font-variant-numeric:normal;font-variant-east-asian:normal;fill:#684123;fill-opacity:1;stroke-width:0.264583"
       d="m 92.260747,25.938831 0.65379,-0.988719 c 0.122586,-0.185385 0.101509,-0.3262 -0.04856,-0.425436 -0.150074,-0.09924 -0.293736,-0.05467 -0.410484,0.12189 l -0.65379,0.988719 -0.609121,-0.402781 c -0.194213,-0.128423 -0.338018,-0.122012 -0.437254,0.02806 -0.09924,0.150073 -0.05467,0.293735 0.139546,0.422158 l 0.609121,0.402782 -1.506051,2.277584 c -0.443643,0.670917 -0.179359,1.480066 0.68577,2.052132 0.414909,0.274358 0.97348,0.504147 1.50229,0.625441 0.408354,0.09239 0.625486,0.07103 0.713047,-0.06139 0.08172,-0.12359 0.04883,-0.284908 -0.07476,-0.366632 -0.04414,-0.02919 -0.08529,-0.04371 -0.199763,-0.04328 -0.472709,-0.03345 -1.175229,-0.294982 -1.660761,-0.616039 -0.582638,-0.385269 -0.769457,-0.889438 -0.495099,-1.304347 l 1.494376,-2.259929 1.88916,1.249205 c 0.194213,0.128423 0.343856,0.113184 0.443091,-0.03689 0.09924,-0.150074 0.04883,-0.284908 -0.145383,-0.413331 z" />
    <path
       id="path975"
       style="font-style:normal;font-variant:normal;font-weight:normal;font-stretch:normal;font-size:10.5833px;font-family:'Nimbus Mono PS';-inkscape-font-specification:'Nimbus Mono PS, Normal';font-variant-ligatures:normal;font-variant-caps:normal;font-variant-numeric:normal;font-variant-east-asian:normal;fill:#684123;fill-opacity:1;stroke-width:0.264583"
       d="m 98.941557,30.979233 -1.30982,-1.154877 c -0.174642,-0.153984 -0.310019,-0.16047 -0.429007,-0.02552 -0.118987,0.134951 -0.09466,0.283388 0.07205,0.430372 l 0.897028,0.790916 -2.218764,2.516442 -1.230437,-1.084885 c -0.166704,-0.146984 -0.317019,-0.152531 -0.429007,-0.02552 -0.118987,0.134951 -0.09466,0.283387 0.07205,0.430372 l 2.873666,2.53373 c 0.166704,0.146985 0.324957,0.159531 0.443945,0.02458 0.111988,-0.127013 0.08766,-0.275449 -0.08698,-0.429433 l -1.230437,-1.084885 z m 1.404973,-1.625474 -0.555682,-0.489948 -0.790916,0.897028 0.555682,0.489948 z" />
    <path
       id="path977"
       style="font-style:normal;font-variant:normal;font-weight:normal;font-stretch:normal;font-size:10.5833px;font-family:'Nimbus Mono PS';-inkscape-font-specification:'Nimbus Mono PS, Normal';font-variant-ligatures:normal;font-variant-caps:normal;font-variant-numeric:normal;font-variant-east-asian:normal;fill:#684123;fill-opacity:1;stroke-width:0.264583"
       d="m 100.16986,36.617297 c 0.1284,-0.110389 0.14079,-0.27456 0.0373,-0.394939 -0.11729,-0.136431 -0.267662,-0.132766 -0.436193,0.01212 l -0.650051,0.558845 c -0.168532,0.144886 -0.194716,0.293006 -0.07743,0.429436 0.110389,0.128405 0.260761,0.124741 0.421268,-0.01325 0.01339,0.518841 0.250648,1.054572 0.671506,1.544116 0.81412,0.946987 1.84308,1.234752 2.47708,0.689706 0.28891,-0.248375 0.43181,-0.650357 0.37957,-1.052053 -0.0511,-0.416621 -0.21812,-0.78945 -0.59773,-1.328415 -0.52688,-0.775221 -0.55335,-0.822247 -0.60081,-1.088495 -0.0359,-0.220348 0.009,-0.412116 0.12093,-0.508707 0.31299,-0.269073 0.91139,-0.04381 1.40814,0.534011 0.50365,0.585848 0.63193,1.173396 0.33739,1.496394 -0.13066,0.140238 -0.14769,0.266535 -0.0442,0.386915 0.11729,0.13643 0.26766,0.132765 0.43619,-0.01212 l 0.54572,-0.469154 c 0.16853,-0.144885 0.19472,-0.293006 0.0843,-0.421411 -0.0966,-0.112354 -0.24584,-0.123614 -0.38002,-0.03618 -0.0259,-0.452243 -0.23205,-0.903073 -0.60462,-1.33644 -0.69683,-0.810557 -1.60752,-1.074389 -2.14521,-0.612135 -0.26484,0.227677 -0.38944,0.586012 -0.32691,0.950959 0.0556,0.356922 0.19953,0.637951 0.6539,1.280119 0.33131,0.482789 0.46254,0.732843 0.52154,1.044991 0.0682,0.290324 0.002,0.570514 -0.16655,0.715399 -0.39324,0.338067 -1.1168,0.08085 -1.70325,-0.601305 -0.565742,-0.658075 -0.755135,-1.430348 -0.41807,-1.72012 z" />
    <path
       id="path979"
       style="font-style:normal;font-variant:normal;font-weight:normal;font-stretch:normal;font-size:10.5833px;font-family:'Nimbus Mono PS';-inkscape-font-specification:'Nimbus Mono PS, Normal';font-variant-ligatures:normal;font-variant-caps:normal;font-variant-numeric:normal;font-variant-east-asian:normal;fill:#684123;fill-opacity:1;stroke-width:0.264583"
       d="m 104.70191,44.73231 0.57834,0.898948 c 0.12024,0.18691 0.26334,0.23328 0.41464,0.135937 0.14241,-0.09162 0.15953,-0.241057 0.0393,-0.427967 l -0.28058,-0.436123 2.27852,-1.465873 c 0.64974,-0.418003 0.71491,-1.353418 0.16521,-2.207863 -0.21759,-0.338218 -0.70549,-0.84231 -1.18953,-1.223041 -0.12467,-0.09598 -0.23596,-0.11247 -0.34276,-0.04376 -0.12461,0.08017 -0.15953,0.241057 -0.0851,0.356763 0.0286,0.0445 0.0547,0.06548 0.16475,0.15828 0.48659,0.404257 0.79829,0.732269 0.98153,1.017084 0.40082,0.623033 0.40866,1.222037 0.008,1.47971 l -0.55183,0.355017 c -0.21006,-0.61992 -0.32651,-0.85961 -0.58418,-1.260131 -0.74439,-1.157061 -1.77659,-1.587838 -2.56873,-1.078218 -0.68533,0.440908 -0.78486,1.32292 -0.23516,2.177365 0.3951,0.614133 0.90584,0.977685 1.73258,1.226032 z m 1.05026,-0.675676 c -0.90622,-0.234966 -1.40869,-0.566091 -1.80379,-1.180223 -0.38364,-0.596332 -0.34823,-1.14766 0.079,-1.422511 0.51622,-0.332112 1.27307,0.06188 1.84568,0.951925 0.25194,0.391621 0.48229,0.847474 0.60005,1.186998 z" />
    <path
       id="path981"
       style="font-style:normal;font-variant:normal;font-weight:normal;font-stretch:normal;font-size:10.5833px;font-family:'Nimbus Mono PS';-inkscape-font-specification:'Nimbus Mono PS, Normal';font-variant-ligatures:normal;font-variant-caps:normal;font-variant-numeric:normal;font-variant-east-asian:normal;fill:#684123;fill-opacity:1;stroke-width:0.264583"
       d="m 110.56374,46.1966 -0.35932,-0.778307 c -0.0976,-0.211392 -0.21883,-0.271991 -0.38218,-0.196578 -0.16334,0.07541 -0.20103,0.221033 -0.10787,0.422816 l 0.12865,0.278654 -3.04597,1.406227 -0.17744,-0.384349 c -0.0976,-0.211392 -0.23287,-0.277164 -0.38661,-0.206187 -0.16335,0.07541 -0.1966,0.230642 -0.10344,0.432425 l 0.58556,1.268353 c 0.0932,0.201783 0.22843,0.267555 0.39178,0.192142 0.15374,-0.07098 0.19142,-0.216598 0.0983,-0.418381 l -0.17744,-0.384349 2.31571,-1.069088 c 0.99125,0.253429 1.24628,0.427107 1.51688,1.013239 0.1597,0.345915 0.18633,0.555097 0.11097,0.846338 -0.0857,0.31933 -0.25348,0.536664 -0.51292,0.656437 l -2.27726,1.051344 -0.12421,-0.269045 c -0.0976,-0.211392 -0.23287,-0.277163 -0.38661,-0.206187 -0.16335,0.07541 -0.1966,0.230643 -0.10344,0.432426 l 0.48353,1.047352 c 0.0887,0.192174 0.22843,0.267554 0.39178,0.192142 0.15374,-0.07098 0.19142,-0.216598 0.0983,-0.418381 l -0.12864,-0.278653 2.34453,-1.082396 c 0.74948,-0.346012 1.01548,-1.284786 0.60736,-2.168789 -0.27059,-0.586133 -0.60325,-0.852198 -1.37645,-1.113042 z" />
    <path
       id="path983"
       style="font-style:normal;font-variant:normal;font-weight:normal;font-stretch:normal;font-size:10.5833px;font-family:'Nimbus Mono PS';-inkscape-font-specification:'Nimbus Mono PS, Normal';font-variant-ligatures:normal;font-variant-caps:normal;font-variant-numeric:normal;font-variant-east-asian:normal;fill:#684123;fill-opacity:1;stroke-width:0.264583"
       d="m 109.69825,56.359172 0.30841,1.023456 c 0.0641,0.212798 0.18891,0.296782 0.36118,0.244872 0.16213,-0.04886 0.21974,-0.187804 0.15561,-0.400601 l -0.14962,-0.496528 2.59411,-0.781701 c 0.73972,-0.222907 1.05998,-1.104202 0.76685,-2.076992 -0.11604,-0.385062 -0.44625,-1.004026 -0.80672,-1.503337 -0.0934,-0.126597 -0.19586,-0.173102 -0.31746,-0.13646 -0.14186,0.04275 -0.21974,0.187804 -0.18004,0.319536 0.0153,0.05067 0.0346,0.07801 0.11479,0.19753 0.35644,0.52263 0.56576,0.923798 0.66347,1.248061 0.21375,0.709326 0.0563,1.287326 -0.39968,1.424734 l -0.62826,0.189318 c -0.0312,-0.653796 -0.0772,-0.916287 -0.21456,-1.372282 -0.39695,-1.31732 -1.2706,-2.015699 -2.17246,-1.743936 -0.78026,0.235121 -1.11884,1.055617 -0.8257,2.028406 0.21069,0.699193 0.60156,1.189343 1.32794,1.655767 z m 1.19572,-0.360315 c -0.80647,-0.475449 -1.19832,-0.932145 -1.40901,-1.631338 -0.20458,-0.678926 -0.0187,-1.199181 0.46769,-1.345749 0.58773,-0.177104 1.20681,0.410081 1.51216,1.423403 0.13435,0.445862 0.23026,0.947525 0.24996,1.306349 z" />
    <path
       id="path985"
       style="font-style:normal;font-variant:normal;font-weight:normal;font-stretch:normal;font-size:10.5833px;font-family:'Nimbus Mono PS';-inkscape-font-specification:'Nimbus Mono PS, Normal';font-variant-ligatures:normal;font-variant-caps:normal;font-variant-numeric:normal;font-variant-east-asian:normal;fill:#684123;fill-opacity:1;stroke-width:0.264583"
       d="m 117.0997,60.687343 -0.26294,-1.704922 c -0.0355,-0.230112 -0.14737,-0.33065 -0.31473,-0.30484 -0.17781,0.02742 -0.2542,0.156997 -0.21871,0.38711 l 0.17905,1.16102 -5.24028,0.808175 -0.25003,-1.621245 c -0.0339,-0.219652 -0.14576,-0.32019 -0.31311,-0.29438 -0.17782,0.02742 -0.25421,0.156997 -0.22033,0.37665 l 0.58395,3.786389 c 0.0339,0.219653 0.14737,0.33065 0.32518,0.303227 0.16736,-0.02581 0.24375,-0.155384 0.20826,-0.385496 l -0.25004,-1.621244 z" />
    <path
       id="path987"
       style="font-style:normal;font-variant:normal;font-weight:normal;font-stretch:normal;font-size:10.5833px;font-family:'Nimbus Mono PS';-inkscape-font-specification:'Nimbus Mono PS, Normal';font-variant-ligatures:normal;font-variant-caps:normal;font-variant-numeric:normal;font-variant-east-asian:normal;fill:#684123;fill-opacity:1;stroke-width:0.264583"
       d="m 113.38006,70.067216 0.0847,-0.0013 0.0741,-0.0011 c 1.35451,-0.02038 2.34389,-1.09372 2.32255,-2.511721 -0.021,-1.396838 -1.03198,-2.461244 -2.31241,-2.441977 -1.39684,0.02102 -2.45886,1.19071 -2.43672,2.661622 0.0154,1.026464 0.54233,2.278091 0.94445,2.27204 0.14815,-0.0022 0.2628,-0.120384 0.26058,-0.268533 -9.6e-4,-0.06349 -0.0228,-0.105503 -0.0875,-0.189204 -0.32383,-0.418507 -0.5681,-1.176915 -0.57766,-1.811841 -0.0166,-1.100539 0.64828,-1.936134 1.66193,-2.09957 z m 0.47361,-4.399693 c 0.87044,0.166839 1.45334,0.920151 1.46799,1.893705 0.0145,0.962971 -0.55591,1.744222 -1.41051,1.926434 z" />
  </g>
  <g
     inkscape:label="border"
     id="layer2"
     inkscape:groupmode="layer"
     style="display:inline" />
  <path
     d="m 66.519911,-8.9230346 -5.101605,-0.010197 2.573877,-1.6851364 z"
     style="fill:#000000;fill-opacity:1;stroke:none;stroke-width:1.30079;stroke-linecap:round;stroke-linejoin:round;stroke-miterlimit:4;stroke-dasharray:none;paint-order:stroke fill markers"
     id="path856" />
  <circle
     r="32.271843"
     cy="65.666824"
     cx="65.902534"
     id="path930"
     style="opacity:1;fill:none;fill-opacity:1;stroke:none;stroke-width:0.907322;stroke-linecap:round;stroke-linejoin:round;stroke-miterlimit:4;stroke-dasharray:none;paint-order:stroke fill markers" />
  <path
     id="circle858"
     style="opacity:1;fill:#646f3a;fill-opacity:1;stroke:none;stroke-width:1.08218;stroke-linecap:round;stroke-linejoin:round;stroke-miterlimit:4;stroke-dasharray:none;paint-order:stroke fill markers"
     d="m 66.259424,19.273093 c -0.373868,0.282272 -0.74066,0.570332 -1.09972,0.864006 -0.266761,0.218181 -0.526898,0.439603 -0.784346,0.662202 -0.17551,0.0068 -0.351582,0.01132 -0.526575,0.02003 -0.634545,-0.461154 -1.288896,-0.906003 -1.964134,-1.332165 -0.57543,0.542592 -1.125518,1.095911 -1.653257,1.658158 -0.210324,0.02743 -0.4197,0.05793 -0.62911,0.08823 -0.655095,-0.375462 -1.326636,-0.735 -2.016016,-1.076842 -0.483107,0.560539 -0.944369,1.128616 -1.38609,1.703096 -0.280657,0.06293 -0.560014,0.129173 -0.838677,0.197311 -0.643549,-0.283389 -1.300304,-0.552142 -1.970263,-0.805589 -0.389341,0.554817 -0.760889,1.114512 -1.116061,1.678175 -0.368132,0.118457 -0.734127,0.241724 -1.098084,0.369297 -0.607952,-0.196563 -1.225343,-0.381365 -1.852204,-0.55272 -0.30154,0.531147 -0.588002,1.064985 -0.862373,1.600967 -0.45558,0.193649 -0.906016,0.396577 -1.353813,0.604601 -0.5594,-0.122003 -1.124728,-0.234779 -1.696966,-0.336208 -0.22651,0.501391 -0.440882,1.004014 -0.645862,1.507416 -0.522973,0.28096 -1.039077,0.57272 -1.549495,0.873404 -0.509525,-0.06188 -1.022108,-0.11749 -1.540097,-0.162589 -0.164469,0.472095 -0.318972,0.944136 -0.466113,1.416318 -0.559932,0.370546 -1.111112,0.753098 -1.653257,1.147516 -0.468635,-0.0144 -0.940083,-0.0223 -1.414276,-0.02247 -0.114271,0.450532 -0.221014,0.900482 -0.320682,1.34973 -0.562755,0.452295 -1.114249,0.917702 -1.654482,1.395893 -0.441906,0.025 -0.885798,0.05565 -1.331346,0.09355 -0.07271,0.442155 -0.137832,0.883069 -0.197312,1.322768 -0.531458,0.515634 -1.050267,1.044059 -1.556031,1.585035 -0.43273,0.06167 -0.866491,0.129346 -1.301525,0.20385 -0.03543,0.45187 -0.06401,0.901676 -0.0862,1.349728 -0.469074,0.550112 -0.925354,1.111522 -1.368111,1.683894 -0.440928,0.101091 -0.882738,0.209224 -1.324812,0.32436 0.0033,0.48037 0.01488,0.957661 0.03269,1.432251 -0.385772,0.551444 -0.760304,1.111175 -1.12178,1.680217 -0.463112,0.147779 -0.92603,0.302525 -1.388947,0.466934 0.04895,0.525066 0.108772,1.044647 0.174845,1.560931 -0.292328,0.518056 -0.576618,1.041506 -0.848893,1.571961 -0.49395,0.204814 -0.987367,0.416726 -1.479228,0.642183 0.106484,0.581722 0.225003,1.156 0.352547,1.724339 -0.198297,0.448724 -0.389536,0.901263 -0.573554,1.357491 -0.529638,0.274838 -1.057061,0.561553 -1.581766,0.862782 0.17838,0.640072 0.370004,1.270405 0.57437,1.890602 -0.118271,0.359072 -0.232044,0.719997 -0.341517,1.08297 -0.558193,0.355438 -1.112205,0.727334 -1.661425,1.116059 0.263261,0.68718 0.543121,1.360116 0.837453,2.019285 -0.0599,0.266809 -0.11968,0.53376 -0.174844,0.802323 -0.570819,0.442333 -1.135412,0.904025 -1.692065,1.386906 0.355467,0.710843 0.729907,1.402401 1.120553,2.076475 -0.0234,0.186368 -0.04301,0.373824 -0.06414,0.560888 -0.563722,0.531631 -1.118789,1.085158 -1.662243,1.664287 0.446018,0.702749 0.911847,1.382689 1.395075,2.040937 -0.0044,0.140841 -0.0088,0.281647 -0.01185,0.422811 -0.526109,0.609925 -1.040391,1.24401 -1.540506,1.905717 0.0051,0.0066 0.0103,0.01304 0.01553,0.0196 0.520543,0.650972 1.05482,1.273917 1.600148,1.871812 0.0085,0.141458 0.01707,0.282931 0.02696,0.424037 -0.457527,0.660993 -0.897539,1.342407 -1.317864,2.045431 0.564826,0.570598 1.140556,1.114649 1.724744,1.636096 0.02884,0.188797 0.06198,0.376134 0.09314,0.564158 -0.366407,0.674605 -0.716521,1.365975 -1.047838,2.075251 0.57808,0.47502 1.163868,0.927563 1.755384,1.360351 0.0659,0.266878 0.133648,0.532837 0.204258,0.797827 -0.2715,0.656224 -0.528501,1.325413 -0.769233,2.007847 0.566841,0.378878 1.138206,0.740189 1.713307,1.084604 0.342288,1.069153 0.837302,1.706218 0.971011,2.373457 h 1.529884 c -2.599599,-5.618601 -3.693347,-10.55647 -3.693348,-17.157566 0,-24.316032 19.682452,-44.014517 43.979386,-44.014517 24.296933,2e-6 43.980202,19.698485 43.980202,44.014517 0,6.601096 -1.2883,11.890017 -3.88799,17.508627 l 1.58527,-0.0056 c 0.34173,-0.796255 0.42359,-0.776834 0.94399,-2.245905 0.57199,-0.324428 1.14083,-0.664736 1.70556,-1.021693 -0.22657,-0.697705 -0.46963,-1.382243 -0.72758,-2.054008 0.0742,-0.266301 0.14751,-0.532841 0.21692,-0.801096 0.59286,-0.410853 1.18046,-0.840749 1.76111,-1.291721 -0.319,-0.734182 -0.65773,-1.450148 -1.01311,-2.149191 0.0308,-0.174347 0.0581,-0.349913 0.0871,-0.524943 0.59732,-0.503286 1.18624,-1.029215 1.76519,-1.580538 -0.41522,-0.742799 -0.8514,-1.462922 -1.30643,-2.161447 0.009,-0.108062 0.0174,-0.216087 0.0254,-0.32436 0.57368,-0.590571 1.13588,-1.206684 1.68473,-1.851385 -0.50238,-0.713436 -1.02569,-1.401255 -1.56829,-2.063813 -0.002,-0.219217 -0.003,-0.43884 -0.0104,-0.657299 0.51522,-0.666254 1.01159,-1.35609 1.48657,-2.070349 -0.57431,-0.639252 -1.16196,-1.248624 -1.76027,-1.831368 -0.0123,-0.108451 -0.0242,-0.216955 -0.0372,-0.325176 0.42874,-0.699972 0.83858,-1.420549 1.22759,-2.162264 -0.60018,-0.541747 -1.2101,-1.057026 -1.82768,-1.549084 -0.0361,-0.176014 -0.0767,-0.350497 -0.1148,-0.52576 0.33112,-0.698464 0.64551,-1.413152 0.9404,-2.144698 -0.60179,-0.442133 -1.20997,-0.86194 -1.8232,-1.262308 -0.0798,-0.264732 -0.16222,-0.528215 -0.24674,-0.790883 0.23579,-0.668616 0.4567,-1.349267 0.66139,-2.042161 -0.58241,-0.346702 -1.16849,-0.676436 -1.75744,-0.989421 -0.14491,-0.359688 -0.29474,-0.716892 -0.44854,-1.07194 0.15138,-0.62034 0.29053,-1.249015 0.41627,-1.88611 -0.54965,-0.261409 -1.10107,-0.508223 -1.65366,-0.743086 -0.22819,-0.445623 -0.46642,-0.885437 -0.70877,-1.322361 0.0818,-0.564777 0.15673,-1.133389 0.21773,-1.709221 -0.51668,-0.190975 -1.03353,-0.369864 -1.55072,-0.539647 -0.31722,-0.501311 -0.64436,-0.99557 -0.98043,-1.483315 0.0268,-0.514853 0.0475,-1.032368 0.0572,-1.554394 -0.48722,-0.133079 -0.97399,-0.255619 -1.46003,-0.37134 -0.40378,-0.524843 -0.81885,-1.040352 -1.24474,-1.546634 -0.0174,-0.47711 -0.0412,-0.956251 -0.0735,-1.437968 -0.46951,-0.08587 -0.937833,-0.163717 -1.404872,-0.234486 -0.475965,-0.512602 -0.963498,-1.014066 -1.462483,-1.50415 -0.05607,-0.455543 -0.118609,-0.912562 -0.188732,-1.370973 -0.467227,-0.04501 -0.932852,-0.0824 -1.396303,-0.113162 -0.524877,-0.468555 -1.060282,-0.925325 -1.606682,-1.369339 -0.09477,-0.451532 -0.196253,-0.90404 -0.305572,-1.357083 -0.483133,-0.0054 -0.963591,-0.0024 -1.441231,0.0069 -0.542797,-0.398935 -1.094282,-0.786594 -1.655004,-1.161461 -0.138643,-0.463269 -0.284577,-0.926755 -0.439561,-1.390172 -0.516269,0.03856 -1.027387,0.08787 -1.535601,0.142979 -0.527346,-0.314481 -1.060063,-0.620496 -1.600968,-0.913846 -0.19113,-0.48541 -0.389085,-0.970084 -0.599699,-1.453901 -0.563224,0.09203 -1.119949,0.1951 -1.671229,0.306795 -0.475333,-0.224077 -0.954583,-0.440891 -1.438788,-0.64872 -0.255518,-0.514954 -0.521664,-1.028608 -0.801482,-1.539576 -0.615239,0.158307 -1.221379,0.329759 -1.819114,0.511868 -0.399122,-0.142431 -0.800917,-0.279117 -1.205116,-0.410557 -0.330919,-0.541766 -0.675952,-1.079939 -1.037215,-1.614038 -0.661528,0.237631 -1.311008,0.489715 -1.947795,0.755749 -0.312752,-0.07825 -0.626337,-0.154211 -0.941625,-0.225908 -0.413732,-0.556089 -0.845075,-1.106651 -1.295805,-1.650394 -0.688838,0.325577 -1.360867,0.668606 -2.016834,1.026595 -0.234072,-0.03506 -0.469051,-0.06741 -0.704277,-0.09886 -0.499597,-0.552242 -1.019471,-1.096473 -1.562565,-1.630788 -0.687578,0.41416 -1.354185,0.846914 -2.00131,1.295806 -0.182193,-0.0099 -0.36506,-0.01723 -0.547818,-0.02491 -0.578665,-0.522185 -1.179821,-1.034023 -1.806762,-1.532708 z M 40.830816,103.70939 c 1.371419,1.25019 0.7208,0.18556 1.877371,1.10244 0.156497,0.45745 0.320059,0.91488 0.493077,1.37178 0.521233,-0.0595 1.036535,-0.12998 1.548676,-0.2063 0.525885,0.28278 1.05799,0.55553 1.596063,0.81784 0.214623,0.48823 0.437987,0.97555 0.673231,1.46127 0.575366,-0.11794 1.143476,-0.24747 1.705139,-0.38605 0.457833,0.19119 0.919972,0.37424 1.385269,0.55067 0.284614,0.52034 0.581002,1.03825 0.891787,1.55317 0.629797,-0.19037 1.249459,-0.39423 1.859147,-0.60991 0.371088,0.11377 0.744254,0.22276 1.119328,0.32722 0.364554,0.54472 0.745301,1.08532 1.142613,1.62058 0.671675,-0.2748 1.329014,-0.56537 1.972714,-0.87014 0.282302,0.0573 0.565939,0.11103 0.850117,0.16299 0.450678,0.55392 0.920208,1.10133 1.410601,1.64061 0.690271,-0.36548 1.361642,-0.7492 2.015605,-1.14833 0.209092,0.0218 0.419187,0.0406 0.629113,0.0597 0.536285,0.54085 1.093963,1.07278 1.676133,1.59321 0.675575,-0.4519 1.328899,-0.92279 1.961275,-1.40978 0.164826,10e-4 0.329059,0.007 0.494302,0.007 0.01009,0 0.02013,-4.2e-4 0.03022,-4.2e-4 0.263437,0.21532 0.530132,0.42907 0.80273,0.63974 0.356802,0.27571 0.720262,0.54591 1.090733,0.81049 0.621942,-0.52229 1.217171,-1.0571 1.788882,-1.6022 0.183252,-0.015 0.366003,-0.0319 0.548635,-0.0491 0.649755,0.42467 1.317773,0.83361 2.005803,1.22351 0.536235,-0.55641 1.048343,-1.12256 1.539282,-1.69615 0.233887,-0.0409 0.466731,-0.0844 0.699375,-0.12868 0.656298,0.33508 1.327468,0.65522 2.01479,0.95795 0.443317,-0.56476 0.866601,-1.13603 1.271297,-1.7125 0.310615,-0.0837 0.620205,-0.17007 0.928143,-0.26021 0.634914,0.24504 1.281867,0.47606 1.940032,0.69284 0.352024,-0.55158 0.687275,-1.10731 1.007804,-1.66591 0.397494,-0.14688 0.791716,-0.30031 1.183873,-0.45795 0.59474,0.16357 1.197367,0.31594 1.808493,0.4559 0.270959,-0.52778 0.52808,-1.05738 0.773725,-1.58872 0.473545,-0.22577 0.942206,-0.45983 1.406512,-0.70141 0.547133,0.0954 1.097891,0.18427 1.656115,0.26022 0.202146,-0.50051 0.393087,-1.00171 0.57478,-1.50333 2.094357,-1.74112 1.624762,-0.0933 3.038042,-1.31276 -0.510792,8.1e-4 -2.016772,0.029 -2.659801,-0.004 -6.975592,4.65432 -14.433115,6.36466 -23.449474,6.36466 -9.016357,0 -15.849699,-1.70444 -22.82515,-6.35877 z"
     sodipodi:nodetypes="csccccccccccccccccccccccccccccccccccccccccccccccccccccccccccccccccssscccccccccccccccccccccccccccccccccccccccccccccccccccccccccccccccccccccccccccccccccccscsccccccccccccccccccccccc" />
  <g
     id="g1115"
     transform="matrix(0.74360821,0,0,0.74360821,16.50789,18.174624)"
     style="fill:#646f3a;fill-opacity:1;stroke-width:3.55810125;stroke-miterlimit:4;stroke-dasharray:none;paint-order:markers fill stroke">
    <path
       id="path878"
       d="m -0.4459335,88.889145 0.23437501,0.882813 6.03710939,22.707032 H 128.34703 l 6.32031,-23.589845 z m 1.828125,1.40625 H 132.83336 l -5.56641,20.777335 H 6.9075822 Z"
       style="color:#000000;font-style:normal;font-variant:normal;font-weight:normal;font-stretch:normal;font-size:medium;line-height:normal;font-family:sans-serif;font-variant-ligatures:normal;font-variant-position:normal;font-variant-caps:normal;font-variant-numeric:normal;font-variant-alternates:normal;font-variant-east-asian:normal;font-feature-settings:normal;font-variation-settings:normal;text-indent:0;text-align:start;text-decoration:none;text-decoration-line:none;text-decoration-style:solid;text-decoration-color:#000000;letter-spacing:normal;word-spacing:normal;text-transform:none;writing-mode:lr-tb;direction:ltr;text-orientation:mixed;dominant-baseline:auto;baseline-shift:baseline;text-anchor:start;white-space:normal;shape-padding:0;shape-margin:0;inline-size:0;clip-rule:nonzero;display:inline;overflow:visible;visibility:visible;opacity:1;isolation:auto;mix-blend-mode:normal;color-interpolation:sRGB;color-interpolation-filters:linearRGB;solid-color:#000000;solid-opacity:1;vector-effect:none;fill:#646f3a;fill-opacity:1;fill-rule:nonzero;stroke:none;stroke-width:5.33715;stroke-linecap:butt;stroke-linejoin:miter;stroke-miterlimit:4;stroke-dasharray:none;stroke-dashoffset:0;stroke-opacity:1;paint-order:markers fill stroke;color-rendering:auto;image-rendering:auto;shape-rendering:auto;text-rendering:auto;enable-background:accumulate;stop-color:#000000;stop-opacity:1" />
    <path
       sodipodi:nodetypes="cccccscccccccccccccccc"
       id="path882"
       d="m -13.674321,98.679688 1.054687,1.173828 c 3.034634,3.374734 6.052833,6.766824 9.078125,10.154294 l -4.28125,12.28321 0.992188,-0.002 c 17.73324,-0.0435 4.6597624,-0.0195 22.394342,-0.0195 h 0.914062 l -2.992187,-11.2539 H 6.3625986 L 3.0813486,98.679688 H 2.542286 Z m 3.148437,1.406252 H 2.0012704 l 3.2792969,12.33594 h 7.1230467 l 2.246094,8.4414 c -15.31101888,-0.001 -5.2871712,-0.0171 -20.491998,0.0195 l 3.9023436,-11.19531 -0.2753906,-0.30859 c -2.767257,-3.09786 -5.534698,-6.19925 -8.310547,-9.29297 z"
       style="color:#000000;font-style:normal;font-variant:normal;font-weight:normal;font-stretch:normal;font-size:medium;line-height:normal;font-family:sans-serif;font-variant-ligatures:normal;font-variant-position:normal;font-variant-caps:normal;font-variant-numeric:normal;font-variant-alternates:normal;font-variant-east-asian:normal;font-feature-settings:normal;font-variation-settings:normal;text-indent:0;text-align:start;text-decoration:none;text-decoration-line:none;text-decoration-style:solid;text-decoration-color:#000000;letter-spacing:normal;word-spacing:normal;text-transform:none;writing-mode:lr-tb;direction:ltr;text-orientation:mixed;dominant-baseline:auto;baseline-shift:baseline;text-anchor:start;white-space:normal;shape-padding:0;shape-margin:0;inline-size:0;clip-rule:nonzero;display:inline;overflow:visible;visibility:visible;opacity:1;isolation:auto;mix-blend-mode:normal;color-interpolation:sRGB;color-interpolation-filters:linearRGB;solid-color:#000000;solid-opacity:1;vector-effect:none;fill:#646f3a;fill-opacity:1;fill-rule:nonzero;stroke:none;stroke-width:5.33715;stroke-linecap:butt;stroke-linejoin:miter;stroke-miterlimit:4;stroke-dasharray:none;stroke-dashoffset:0;stroke-opacity:1;paint-order:markers fill stroke;color-rendering:auto;image-rendering:auto;shape-rendering:auto;text-rendering:auto;enable-background:accumulate;stop-color:#000000;stop-opacity:1" />
    <path
       sodipodi:nodetypes="cccccsccccccccccccccc"
       id="path886"
       d="m 130.74023,98.679688 -3.30664,12.335932 h -7.07617 l -0.13867,0.52149 -2.85547,10.73242 h 0.91602 c 17.73454,0 4.32788,-0.0238 22.06106,0.0195 l 0.99218,0.002 -4.2832,-12.28321 c 3.02558,-3.38778 6.04321,-6.77925 9.07813,-10.154294 l 1.05664,-1.173828 z m 1.07813,1.406252 h 12.21536 c -2.77582,3.09368 -5.54137,6.19515 -8.3086,9.29297 l -0.27734,0.30859 3.9043,11.19531 c -15.20832,-0.0364 -4.84682,-0.0208 -20.15872,-0.0195 l 2.24414,-8.4414 h 7.07617 z"
       style="color:#000000;font-style:normal;font-variant:normal;font-weight:normal;font-stretch:normal;font-size:medium;line-height:normal;font-family:sans-serif;font-variant-ligatures:normal;font-variant-position:normal;font-variant-caps:normal;font-variant-numeric:normal;font-variant-alternates:normal;font-variant-east-asian:normal;font-feature-settings:normal;font-variation-settings:normal;text-indent:0;text-align:start;text-decoration:none;text-decoration-line:none;text-decoration-style:solid;text-decoration-color:#000000;letter-spacing:normal;word-spacing:normal;text-transform:none;writing-mode:lr-tb;direction:ltr;text-orientation:mixed;dominant-baseline:auto;baseline-shift:baseline;text-anchor:start;white-space:normal;shape-padding:0;shape-margin:0;inline-size:0;clip-rule:nonzero;display:inline;overflow:visible;visibility:visible;opacity:1;isolation:auto;mix-blend-mode:normal;color-interpolation:sRGB;color-interpolation-filters:linearRGB;solid-color:#000000;solid-opacity:1;vector-effect:none;fill:#646f3a;fill-opacity:1;fill-rule:nonzero;stroke:none;stroke-width:5.33715;stroke-linecap:butt;stroke-linejoin:miter;stroke-miterlimit:4;stroke-dasharray:none;stroke-dashoffset:0;stroke-opacity:1;paint-order:markers fill stroke;color-rendering:auto;image-rendering:auto;shape-rendering:auto;text-rendering:auto;enable-background:accumulate;stop-color:#000000;stop-opacity:1" />
    <path
       sodipodi:nodetypes="cccccccccccc"
       id="path890"
       d="m 13.092435,111.11715 -7.2324227,0.0391 c -0.6234985,0.004 -0.9092408,0.87205 -0.4695103,1.3141 l 9.635527,9.56676 c 0.503696,0.50286 1.350047,0.025 1.179687,-0.66602 l -2.425781,-9.7207 c -0.07854,-0.31517 -0.362699,-0.53556 -0.6875,-0.5332 z m -0.542969,1.4082 1.675782,6.71875 -1.062233,-4.51776 z"
       style="color:#000000;font-style:normal;font-variant:normal;font-weight:normal;font-stretch:normal;font-size:medium;line-height:normal;font-family:sans-serif;font-variant-ligatures:normal;font-variant-position:normal;font-variant-caps:normal;font-variant-numeric:normal;font-variant-alternates:normal;font-variant-east-asian:normal;font-feature-settings:normal;font-variation-settings:normal;text-indent:0;text-align:start;text-decoration:none;text-decoration-line:none;text-decoration-style:solid;text-decoration-color:#000000;letter-spacing:normal;word-spacing:normal;text-transform:none;writing-mode:lr-tb;direction:ltr;text-orientation:mixed;dominant-baseline:auto;baseline-shift:baseline;text-anchor:start;white-space:normal;shape-padding:0;shape-margin:0;inline-size:0;clip-rule:nonzero;display:inline;overflow:visible;visibility:visible;opacity:1;isolation:auto;mix-blend-mode:normal;color-interpolation:sRGB;color-interpolation-filters:linearRGB;solid-color:#000000;solid-opacity:1;vector-effect:none;fill:#646f3a;fill-opacity:1;fill-rule:nonzero;stroke:none;stroke-width:5.33715;stroke-linecap:butt;stroke-linejoin:round;stroke-miterlimit:4;stroke-dasharray:none;stroke-dashoffset:0;stroke-opacity:1;paint-order:markers fill stroke;color-rendering:auto;image-rendering:auto;shape-rendering:auto;text-rendering:auto;enable-background:accumulate;stop-color:#000000;stop-opacity:1" />
    <path
       sodipodi:nodetypes="ccccccccccc"
       id="path894"
       d="m 120.53125,110.99609 c -0.32826,-0.001 -0.6136,0.2251 -0.6875,0.54493 l -2.28125,9.80078 c -0.16194,0.69036 0.68383,1.15931 1.18359,0.65625 l 9.72266,-9.76172 c 0.44038,-0.44271 0.12834,-1.197 -0.49609,-1.19922 z m 3.19077,4.13105 2.56314,-2.69359 -6.79493,6.82422 z"
       style="color:#000000;font-style:normal;font-variant:normal;font-weight:normal;font-stretch:normal;font-size:medium;line-height:normal;font-family:sans-serif;font-variant-ligatures:normal;font-variant-position:normal;font-variant-caps:normal;font-variant-numeric:normal;font-variant-alternates:normal;font-variant-east-asian:normal;font-feature-settings:normal;font-variation-settings:normal;text-indent:0;text-align:start;text-decoration:none;text-decoration-line:none;text-decoration-style:solid;text-decoration-color:#000000;letter-spacing:normal;word-spacing:normal;text-transform:none;writing-mode:lr-tb;direction:ltr;text-orientation:mixed;dominant-baseline:auto;baseline-shift:baseline;text-anchor:start;white-space:normal;shape-padding:0;shape-margin:0;inline-size:0;clip-rule:nonzero;display:inline;overflow:visible;visibility:visible;opacity:1;isolation:auto;mix-blend-mode:normal;color-interpolation:sRGB;color-interpolation-filters:linearRGB;solid-color:#000000;solid-opacity:1;vector-effect:none;fill:#646f3a;fill-opacity:1;fill-rule:nonzero;stroke:none;stroke-width:5.33715;stroke-linecap:butt;stroke-linejoin:round;stroke-miterlimit:4;stroke-dasharray:none;stroke-dashoffset:0;stroke-opacity:1;paint-order:markers fill stroke;color-rendering:auto;image-rendering:auto;shape-rendering:auto;text-rendering:auto;enable-background:accumulate;stop-color:#000000;stop-opacity:1" />
  </g>
  <path
     id="path874"
     d="M 98.611952,64.673163 C 98.302093,55.492737 94.136986,46.576545 86.627975,40.432543 74.613552,30.60214 57.338518,30.566056 45.284289,40.347606 33.230059,50.129156 29.706381,67.042122 36.851953,80.823413 a 0.45366519,0.45366519 0 0 0 0.612303,0.193922 0.45366519,0.45366519 0 0 0 0.193921,-0.612304 c -6.949926,-13.403959 -3.526629,-29.838272 8.197555,-39.352003 11.724185,-9.513731 28.513174,-9.480814 40.198641,0.08043 11.685467,9.561246 15.041347,26.011254 8.037082,39.386891 a 0.45366519,0.45366519 0 0 0 0.191322,0.613067 0.45366519,0.45366519 0 0 0 0.612965,-0.192867 c 2.700554,-5.157064 3.902122,-10.759132 3.71621,-16.267388 z"
     style="color:#000000;font-style:normal;font-variant:normal;font-weight:normal;font-stretch:normal;font-size:medium;line-height:normal;font-family:sans-serif;font-variant-ligatures:normal;font-variant-position:normal;font-variant-caps:normal;font-variant-numeric:normal;font-variant-alternates:normal;font-variant-east-asian:normal;font-feature-settings:normal;font-variation-settings:normal;text-indent:0;text-align:start;text-decoration:none;text-decoration-line:none;text-decoration-style:solid;text-decoration-color:#000000;letter-spacing:normal;word-spacing:normal;text-transform:none;writing-mode:lr-tb;direction:ltr;text-orientation:mixed;dominant-baseline:auto;baseline-shift:baseline;text-anchor:start;white-space:normal;shape-padding:0;shape-margin:0;inline-size:0;clip-rule:nonzero;display:inline;overflow:visible;visibility:visible;opacity:1;isolation:auto;mix-blend-mode:normal;color-interpolation:sRGB;color-interpolation-filters:linearRGB;solid-color:#000000;solid-opacity:1;vector-effect:none;fill:#646f3a;fill-opacity:1;fill-rule:nonzero;stroke:none;stroke-width:1.09246457;stroke-linecap:round;stroke-linejoin:round;stroke-miterlimit:4;stroke-dasharray:none;stroke-dashoffset:0;stroke-opacity:1;paint-order:stroke fill markers;color-rendering:auto;image-rendering:auto;shape-rendering:auto;text-rendering:auto;enable-background:accumulate;stop-color:#000000;stop-opacity:1" />
  <text
     xml:space="preserve"
     style="font-style:normal;font-weight:normal;font-size:5.57757px;line-height:1.25;font-family:sans-serif;letter-spacing:0px;word-spacing:0px;fill:#684123;fill-opacity:1;stroke:none;stroke-width:0.209159"
     x="52.11076"
     y="106.83693"
     id="text1119"><tspan
       sodipodi:role="line"
       id="tspan1117"
       x="52.11076"
       y="106.83693"
       style="font-style:normal;font-variant:normal;font-weight:normal;font-stretch:normal;font-size:5.57757px;font-family:'Nimbus Mono PS';-inkscape-font-specification:'Nimbus Mono PS, Normal';font-variant-ligatures:normal;font-variant-caps:normal;font-variant-numeric:normal;font-variant-east-asian:normal;fill:#684123;fill-opacity:1;stroke-width:0.209159">  1997</tspan></text>
  <text
     xml:space="preserve"
     style="font-style:normal;font-weight:normal;font-size:19.6466px;line-height:1.25;font-family:sans-serif;letter-spacing:0.921519px;word-spacing:0px;fill:#684123;fill-opacity:1;stroke:none;stroke-width:0.409307"
     x="28.381611"
     y="98.651901"
     id="text1123"><tspan
       sodipodi:role="line"
       id="tspan1121"
       x="28.381611"
       y="98.651901"
       style="font-style:normal;font-variant:normal;font-weight:normal;font-stretch:normal;font-size:19.6466px;font-family:SUBSCRIBER;-inkscape-font-specification:'SUBSCRIBER, Normal';font-variant-ligatures:normal;font-variant-caps:normal;font-variant-numeric:normal;font-variant-east-asian:normal;fill:#684123;fill-opacity:1;stroke-width:0.409307">breizh beans</tspan></text>
  <g
     inkscape:label="cup"
     inkscape:groupmode="layer"
     id="layer1"
     style="display:inline">
    <path
       id="path863"
       style="color:#000000;font-style:normal;font-variant:normal;font-weight:normal;font-stretch:normal;font-size:medium;line-height:normal;font-family:sans-serif;font-variant-ligatures:normal;font-variant-position:normal;font-variant-caps:normal;font-variant-numeric:normal;font-variant-alternates:normal;font-variant-east-asian:normal;font-feature-settings:normal;font-variation-settings:normal;text-indent:0;text-align:start;text-decoration:none;text-decoration-line:none;text-decoration-style:solid;text-decoration-color:#000000;letter-spacing:normal;word-spacing:normal;text-transform:none;writing-mode:lr-tb;direction:ltr;text-orientation:mixed;dominant-baseline:auto;baseline-shift:baseline;text-anchor:start;white-space:normal;shape-padding:0;shape-margin:0;inline-size:0;clip-rule:nonzero;display:inline;overflow:visible;visibility:visible;opacity:1;isolation:auto;mix-blend-mode:normal;color-interpolation:sRGB;color-interpolation-filters:linearRGB;solid-color:#000000;solid-opacity:1;vector-effect:none;fill:#000000;fill-opacity:1;fill-rule:nonzero;stroke:none;stroke-width:2.30501;stroke-linecap:round;stroke-linejoin:bevel;stroke-miterlimit:4;stroke-dasharray:none;stroke-dashoffset:0;stroke-opacity:1;paint-order:stroke fill markers;color-rendering:auto;image-rendering:auto;shape-rendering:auto;text-rendering:auto;enable-background:accumulate;stop-color:#000000;stop-opacity:1"
       d="m 53.386755,79.554719 c 0.01178,2.21e-4 0.0226,0.0031 0.03446,0.0031 0.01186,0 0.0226,-0.0031 0.03446,-0.0031 z" />
    <path
       id="path897"
       style="color:#000000;font-style:normal;font-variant:normal;font-weight:normal;font-stretch:normal;font-size:medium;line-height:normal;font-family:sans-serif;font-variant-ligatures:normal;font-variant-position:normal;font-variant-caps:normal;font-variant-numeric:normal;font-variant-alternates:normal;font-variant-east-asian:normal;font-feature-settings:normal;font-variation-settings:normal;text-indent:0;text-align:start;text-decoration:none;text-decoration-line:none;text-decoration-style:solid;text-decoration-color:#000000;letter-spacing:normal;word-spacing:normal;text-transform:none;writing-mode:lr-tb;direction:ltr;text-orientation:mixed;dominant-baseline:auto;baseline-shift:baseline;text-anchor:start;white-space:normal;shape-padding:0;shape-margin:0;inline-size:0;clip-rule:nonzero;display:inline;overflow:visible;visibility:visible;opacity:1;isolation:auto;mix-blend-mode:normal;color-interpolation:sRGB;color-interpolation-filters:linearRGB;solid-color:#000000;solid-opacity:1;vector-effect:none;fill:#000000;fill-opacity:1;fill-rule:nonzero;stroke:none;stroke-width:2.30501;stroke-linecap:round;stroke-linejoin:bevel;stroke-miterlimit:4;stroke-dasharray:none;stroke-dashoffset:0;stroke-opacity:1;paint-order:stroke fill markers;color-rendering:auto;image-rendering:auto;shape-rendering:auto;text-rendering:auto;enable-background:accumulate;stop-color:#000000;stop-opacity:1"
       d="m 75.83802,79.554719 c 0.01178,2.21e-4 0.0226,0.0031 0.03446,0.0031 0.01186,0 0.02269,-0.0031 0.03446,-0.0031 z" />
    <g
       transform="matrix(0.72406846,0.03698564,-0.03698564,0.72406846,17.698429,14.70556)"
       id="g892">
      <path
         style="font-variation-settings:normal;opacity:1;vector-effect:none;fill:#684123;fill-opacity:1;stroke:none;stroke-width:0.162679;stroke-linecap:butt;stroke-linejoin:miter;stroke-miterlimit:4;stroke-dasharray:none;stroke-dashoffset:0;stroke-opacity:1;stop-color:#000000;stop-opacity:1"
         d="m 56.403955,56.031921 c -7.940581,-3.656856 -2.704479,-10.960282 -0.448994,-5.90306 0.919345,2.718316 0.528297,4.800755 3.071591,6.722851 -0.874679,-0.271715 -1.749013,-0.544532 -2.622597,-0.819791 z"
         id="path837"
         sodipodi:nodetypes="cccc" />
      <path
         sodipodi:nodetypes="ccc"
         id="path839"
         d="m 58.164403,54.839538 c -2.835642,-2.582607 1.640408,-3.611628 0.798263,-0.721495 -0.349333,1.509708 0.592668,1.76811 -0.798263,0.721495 z"
         style="font-variation-settings:normal;opacity:1;vector-effect:none;fill:#684123;fill-opacity:1;stroke:none;stroke-width:0.0884385;stroke-linecap:butt;stroke-linejoin:miter;stroke-miterlimit:4;stroke-dasharray:none;stroke-dashoffset:0;stroke-opacity:1;stop-color:#000000;stop-opacity:1" />
    </g>
    <path
       d="m 63.868259,40.224207 c -9.915625,16.41815 14.479277,15.38522 4.193443,0.01262 -2.167549,-2.878814 -1.907223,-3.390105 -4.193443,-0.01262 z m 2.162899,-0.02768 c -2.001619,3.394974 4.198823,6.641787 -0.09807,11.135461 2.321397,-6.01145 -2.849201,-6.202316 0.09807,-11.135461 z"
       style="font-variation-settings:normal;opacity:1;vector-effect:none;fill:#684123;fill-opacity:1;stroke:none;stroke-width:0.249085;stroke-linecap:round;stroke-linejoin:round;stroke-miterlimit:4;stroke-dasharray:none;stroke-dashoffset:0;stroke-opacity:1;stop-color:#000000;stop-opacity:1"
       id="path841"
       sodipodi:nodetypes="cccccc" />
    <path
       id="path902"
       style="color:#000000;font-style:normal;font-variant:normal;font-weight:normal;font-stretch:normal;font-size:medium;line-height:normal;font-family:sans-serif;font-variant-ligatures:normal;font-variant-position:normal;font-variant-caps:normal;font-variant-numeric:normal;font-variant-alternates:normal;font-variant-east-asian:normal;font-feature-settings:normal;font-variation-settings:normal;text-indent:0;text-align:start;text-decoration:none;text-decoration-line:none;text-decoration-style:solid;text-decoration-color:#000000;letter-spacing:normal;word-spacing:normal;text-transform:none;writing-mode:lr-tb;direction:ltr;text-orientation:mixed;dominant-baseline:auto;baseline-shift:baseline;text-anchor:start;white-space:normal;shape-padding:0;shape-margin:0;inline-size:0;clip-rule:nonzero;display:inline;overflow:visible;visibility:visible;isolation:auto;mix-blend-mode:normal;color-interpolation:sRGB;color-interpolation-filters:linearRGB;solid-color:#000000;solid-opacity:1;vector-effect:none;fill:#646f3a;fill-opacity:1;fill-rule:nonzero;stroke:none;stroke-width:2.64546;stroke-linecap:round;stroke-linejoin:bevel;stroke-miterlimit:4;stroke-dasharray:none;stroke-dashoffset:0;stroke-opacity:1;paint-order:stroke fill markers;color-rendering:auto;image-rendering:auto;shape-rendering:auto;text-rendering:auto;enable-background:accumulate;stop-color:#000000"
       d="m 46.404212,79.810785 c 0.10836,0.181231 0.216095,0.36323 0.354077,0.529055 0.186506,0.224142 0.398768,0.433008 0.633175,0.623946 0.234399,0.190939 0.491097,0.363841 0.766266,0.515761 0.275177,0.15192 0.568822,0.283002 0.877618,0.390088 0.308804,0.107089 0.632768,0.19024 0.968076,0.246691 0.321702,0.05416 0.655039,0.08021 0.994695,0.08251 h 0.08676 28.463102 0.08677 c 0.313491,-0.0025 0.620753,-0.02461 0.917108,-0.07179 0.310792,-0.04948 0.610969,-0.122685 0.897957,-0.216852 0.286978,-0.09415 0.560836,-0.209452 0.818934,-0.343446 0.258087,-0.134003 0.500355,-0.286605 0.724477,-0.455609 0.224121,-0.169011 0.430085,-0.354346 0.615143,-0.553537 0.185052,-0.199182 0.349138,-0.412237 0.490031,-0.636779 0.02193,-0.03499 0.03387,-0.07451 0.05463,-0.110052 h -4.519183 c -0.01495,2.31e-4 -0.02874,0.0034 -0.04377,0.0034 -0.01503,0 -0.02881,-0.0034 -0.04377,-0.0034 H 74.954152 55.603295 51.084104 c -0.01495,2.31e-4 -0.02873,0.0034 -0.04377,0.0034 -0.01503,0 -0.02873,-0.0034 -0.04377,-0.0034 h -4.578736 a 1.465562,1.1938099 0 0 0 -0.01349,0 z" />
    <path
       sodipodi:nodetypes="csscccccsssccc"
       d="m 49.597909,56.504905 c -8.84e-4,0.0706 -0.0025,6.968105 -0.0025,7.038925 0,8.5803 6.983782,15.562801 15.564084,15.562792 7.525864,7e-6 13.821047,-5.372427 15.255026,-12.482564 2.224133,-0.124409 3.950731,-1.638337 3.950937,-3.464287 -3.2e-5,-1.727735 -1.550756,-3.192676 -3.638861,-3.437565 0.0015,-1.149814 0.0026,-3.216224 0.0026,-3.217301 h -2.562967 c 2.5e-5,0.0084 -0.0073,7.030453 -0.0073,7.038925 0,7.195276 -5.805393,13.000243 -13.000674,13.000243 -7.195265,0 -13.001106,-5.804975 -13.001106,-13.000243 0,-0.06521 0.0017,-6.973939 0.0026,-7.038925 l -1.332088,0 z"
       style="color:#000000;font-style:normal;font-variant:normal;font-weight:normal;font-stretch:normal;font-size:medium;line-height:normal;font-family:sans-serif;font-variant-ligatures:normal;font-variant-position:normal;font-variant-caps:normal;font-variant-numeric:normal;font-variant-alternates:normal;font-variant-east-asian:normal;font-feature-settings:normal;font-variation-settings:normal;text-indent:0;text-align:start;text-decoration:none;text-decoration-line:none;text-decoration-style:solid;text-decoration-color:#000000;letter-spacing:normal;word-spacing:normal;text-transform:none;writing-mode:lr-tb;direction:ltr;text-orientation:mixed;dominant-baseline:auto;baseline-shift:baseline;text-anchor:start;white-space:normal;shape-padding:0;shape-margin:0;inline-size:0;clip-rule:nonzero;display:inline;overflow:visible;visibility:visible;isolation:auto;mix-blend-mode:normal;color-interpolation:sRGB;color-interpolation-filters:linearRGB;solid-color:#000000;solid-opacity:1;vector-effect:none;fill:#646f3a;fill-opacity:1;fill-rule:nonzero;stroke:none;stroke-width:2.56276;stroke-linecap:round;stroke-linejoin:round;stroke-miterlimit:4;stroke-dasharray:none;stroke-dashoffset:0;stroke-opacity:1;paint-order:stroke fill markers;color-rendering:auto;image-rendering:auto;shape-rendering:auto;text-rendering:auto;enable-background:accumulate;stop-color:#000000"
       id="path840" />
    <path
       sodipodi:nodetypes="csssccssccscc"
       d="m 53.355933,58.669332 c -7.9e-4,0.05747 -0.0016,4.469305 -0.0016,4.526962 0,6.986017 5.307775,12.671298 11.828994,12.671298 6.521204,0 11.828236,-5.685281 11.828236,-12.671298 0,-0.0024 0.01191,-0.0969 0.01191,-0.09924 L 75.06059,62.471227 c 8e-6,0.007 0.0042,0.718171 0.0042,0.725067 0,5.858337 -4.417385,10.343352 -9.880617,10.584858 -5.471563,0.241871 5.897276,-0.394337 7.511018,-5.800656 -4.891799,-0.623128 -7.870807,-6.380992 -11.122057,-8.068509 -3.308923,-1.581838 -4.882641,-1.230578 -8.216132,-1.242655 -5.457841,-0.01977 -0.0011,0 -0.0011,0 z"
       style="color:#000000;font-style:normal;font-variant:normal;font-weight:normal;font-stretch:normal;font-size:medium;line-height:normal;font-family:sans-serif;font-variant-ligatures:normal;font-variant-position:normal;font-variant-caps:normal;font-variant-numeric:normal;font-variant-alternates:normal;font-variant-east-asian:normal;font-feature-settings:normal;font-variation-settings:normal;text-indent:0;text-align:start;text-decoration:none;text-decoration-line:none;text-decoration-style:solid;text-decoration-color:#000000;letter-spacing:normal;word-spacing:normal;text-transform:none;writing-mode:lr-tb;direction:ltr;text-orientation:mixed;dominant-baseline:auto;baseline-shift:baseline;text-anchor:start;white-space:normal;shape-padding:0;shape-margin:0;inline-size:0;clip-rule:nonzero;display:inline;overflow:visible;visibility:visible;isolation:auto;mix-blend-mode:normal;color-interpolation:sRGB;color-interpolation-filters:linearRGB;solid-color:#000000;solid-opacity:1;vector-effect:none;fill:#684123;fill-opacity:1;fill-rule:nonzero;stroke:none;stroke-width:2.01598;stroke-linecap:round;stroke-linejoin:round;stroke-miterlimit:4;stroke-dasharray:none;stroke-dashoffset:0;stroke-opacity:1;paint-order:stroke fill markers;color-rendering:auto;image-rendering:auto;shape-rendering:auto;text-rendering:auto;enable-background:accumulate;stop-color:#000000"
       id="path908" />
    <path
       sodipodi:nodetypes="cccc"
       id="path948"
       d="m 66.520431,62.592237 c 3.209618,3.21039 4.112293,3.296432 6.534018,4.350081 0.885924,-1.650915 0.637369,-4.106908 0.634852,-4.738802 -3.473709,-1.533362 -5.05524,-1.074645 -7.16887,0.388721 z"
       style="font-variation-settings:normal;vector-effect:none;fill:#684123;fill-opacity:1;stroke:none;stroke-width:0.119568;stroke-linecap:butt;stroke-linejoin:miter;stroke-miterlimit:4;stroke-dasharray:none;stroke-dashoffset:0;stroke-opacity:1;stop-color:#000000" />
  </g>
  <circle
     transform="rotate(-179.91032)"
     r="36.731647"
     cy="-67.014153"
     cx="-66.305611"
     id="path940"
     style="fill:none;fill-opacity:1;stroke:none;stroke-width:0.908086;stroke-linecap:round;stroke-linejoin:round;stroke-miterlimit:4;stroke-dasharray:none;paint-order:stroke fill markers" />
  <g
     style="display:inline"
     transform="rotate(-12.618482,46.085244,-22.255362)"
     id="g937">
    <path
       id="path893"
       style="fill:#646f3a;stroke-width:1.09246;stroke-linecap:round;stroke-linejoin:round;paint-order:markers fill stroke"
       d="m 8.5923563,68.067103 -0.6719534,1.21472 -0.7078319,-1.21472 0.6909834,-1.21472 z"
       sodipodi:nodetypes="ccccc" />
    <path
       sodipodi:nodetypes="ccccc"
       d="m 9.6411039,69.754616 -0.6719534,1.21472 -0.7078319,-1.21472 0.6909833,-1.21472 z"
       style="display:inline;fill:#646f3a;stroke-width:1.09246;stroke-linecap:round;stroke-linejoin:round;paint-order:markers fill stroke"
       id="path893-1" />
    <path
       sodipodi:nodetypes="ccccc"
       d="m 7.5595437,69.754616 -0.6719534,1.21472 -0.7078319,-1.21472 0.6909834,-1.21472 z"
       style="display:inline;fill:#646f3a;stroke-width:1.09246;stroke-linecap:round;stroke-linejoin:round;paint-order:markers fill stroke"
       id="path893-7" />
    <path
       id="path931"
       style="display:inline;fill:#646f3a;stroke-width:1.09246;stroke-linecap:round;stroke-linejoin:round;paint-order:markers fill stroke"
       d="M 10.132714,74.387338 8.6076727,73.433937 7.8607259,74.387338 7.1460784,73.433937 5.5887378,74.387338 c 0.7405342,-1.468559 1.5018112,-2.923887 2.3148166,-4.353117 0.8349731,1.402202 1.510825,2.889548 2.2291596,4.353117 z"
       sodipodi:nodetypes="ccccccc" />
  </g>
  <g
     style="display:inline"
     id="g948"
     transform="matrix(-0.97584634,-0.21845803,-0.21845803,0.97584634,125.65542,9.5301433)">
    <path
       sodipodi:nodetypes="ccccc"
       d="m 8.5923563,68.067103 -0.6719534,1.21472 -0.7078319,-1.21472 0.6909834,-1.21472 z"
       style="fill:#646f3a;stroke-width:1.09246;stroke-linecap:round;stroke-linejoin:round;paint-order:markers fill stroke"
       id="path939" />
    <path
       id="path941"
       style="display:inline;fill:#646f3a;stroke-width:1.09246;stroke-linecap:round;stroke-linejoin:round;paint-order:markers fill stroke"
       d="m 9.6411039,69.754616 -0.6719534,1.21472 -0.7078319,-1.21472 0.6909833,-1.21472 z"
       sodipodi:nodetypes="ccccc" />
    <path
       id="path943"
       style="display:inline;fill:#646f3a;stroke-width:1.09246;stroke-linecap:round;stroke-linejoin:round;paint-order:markers fill stroke"
       d="m 7.5595437,69.754616 -0.6719534,1.21472 -0.7078319,-1.21472 0.6909834,-1.21472 z"
       sodipodi:nodetypes="ccccc" />
    <path
       sodipodi:nodetypes="ccccccc"
       d="M 10.132714,74.387338 8.6076727,73.433937 7.8607259,74.387338 7.1460784,73.433937 5.5887378,74.387338 c 0.7405342,-1.468559 1.5018112,-2.923887 2.3148166,-4.353117 0.8349731,1.402202 1.510825,2.889548 2.2291596,4.353117 z"
       style="display:inline;fill:#646f3a;stroke-width:1.09246;stroke-linecap:round;stroke-linejoin:round;paint-order:markers fill stroke"
       id="path946" />
  </g>
</svg>
